<?xml version="1.0" encoding="utf-8"?>
<!-- Generator: Adobe Illustrator 22.1.0, SVG Export Plug-In . SVG Version: 6.00 Build 0)  -->
<svg version="1.2" baseProfile="tiny" id="Layer_1" xmlns="http://www.w3.org/2000/svg" xmlns:xlink="http://www.w3.org/1999/xlink"
	 x="0px" y="0px" viewBox="0 0 5000 5000" xml:space="preserve">
<rect fill="#FFFFFF" width="5000" height="5000"/>
<g>
	<g>
		<path d="M2813.3,1244c-335.3-83.7-683.5-31.5-979.9,146.4c-296.4,178.4-505.5,461.1-589.3,796.9
			c-83.8,335.3-31.5,683.5,146.4,979.9c178,296.4,460.7,505.5,796.5,589.3c104.8,26.1,209.5,38.6,313.1,38.6
			c290.1,0,567.4-98.5,790.6-270.3c223.2-172.1,392.2-417.5,465.4-711.2C3929.1,2120.7,3506.1,1416.5,2813.3,1244z M3661.9,2789.8
			c-159.7,640.7-810.9,1032.1-1451.6,872.4c-310-77.5-571.7-271.1-736.5-545.3s-212.6-595.9-135.2-906.3
			c77.1-310.4,270.7-572.1,544.9-736.9c188.5-113.3,400-171.4,614.6-171.4c97,0,194.7,12.1,291.7,36.2
			c543.7,135.5,907.9,625.1,907.9,1161.8C3697.8,2595.8,3686.1,2692.8,3661.9,2789.8z"/>
	</g>
	<path d="M2090.5,2710.2c-6.8,16.8-24,42-62.6,32.5c1.3,2-99.4-24.8-99.4-24.8l-67.9,156.6l178,44.4c33.1,8.3,65.5,17,97.5,25.1
		l-56.6,227.2l136.6,34.1l56-224.9c37.3,10.2,73.5,19.5,109,28.3l-55.8,223.7l136.7,34.1l56.6-226.8
		c233.1,44.1,408.5,26.3,482.3-184.5c59.5-169.8-3-267.8-125.6-331.7c89.3-20.7,156.6-79.4,174.6-200.8
		c24.8-165.8-101.4-255-274.1-314.5l56-224.6l-136.7-34.1l-54.5,218.7c-35.9-9-72.9-17.4-109.5-25.8l54.9-220.2l-136.7-34.1
		l-56,224.6c-29.8-6.8-59-13.5-87.3-20.5l0.2-0.7l-188.6-47.1l-36.4,146.1c0,0,101.5,23.2,99.3,24.7c55.4,13.8,65.4,50.5,63.7,79.5
		L2090.5,2710.2z M2737.3,2760.8c-42.3,169.8-328.2,78-420.9,55l75.1-301C2484.2,2537.9,2781.4,2583.7,2737.3,2760.8z
		 M2779.6,2320.3c-38.6,154.5-276.5,76-353.7,56.7l68.1-273C2571.1,2123.2,2819.7,2159.1,2779.6,2320.3z"/>
</g>
</svg>
